<svg width="961" height="377" viewBox="0 0 961 377" fill="none" xmlns="http://www.w3.org/2000/svg">
<path d="M65.3398 101.305L66.4026 100.747L66.3959 100.735L66.3888 100.722L65.3398 101.305ZM91.8047 101.598L92.8474 102.192L92.8506 102.186L91.8047 101.598ZM91.9023 40.2695L90.8396 40.8268L90.8421 40.8316L91.9023 40.2695ZM65.3398 39.9766L66.3825 40.5705L65.3398 39.9766ZM80.7695 141.051V139.851L80.5429 142.229L80.7695 141.051ZM96.1016 144.762L95.7661 145.914L95.7676 145.914L96.1016 144.762ZM133.602 148.961L134.731 149.365L135.408 147.475L133.422 147.774L133.602 148.961ZM122.273 180.602L122.337 181.8L123.134 181.758L123.403 181.006L122.273 180.602ZM90.4375 172.789L90.9419 171.7L90.9375 171.698L90.4375 172.789ZM72.2734 165.367L72.6373 164.224L72.6286 164.221L72.6199 164.218L72.2734 165.367ZM40.2422 168.492L39.2894 169.222L39.979 170.122L40.917 169.484L40.2422 168.492ZM25.8867 149.742L25.0857 148.849L24.2589 149.59L24.9339 150.472L25.8867 149.742ZM56.7461 139L56.7821 140.199L57.0053 137.828L56.7461 139ZM18.3672 116.148L19.2558 115.342L19.2512 115.337L18.3672 116.148ZM22.8594 21.1289L22.0148 20.2764L22.0128 20.2784L22.8594 21.1289ZM134.48 21.3242L133.626 22.1667L133.626 22.1668L134.48 21.3242ZM134.09 120.445L133.253 119.585L133.249 119.589L134.09 120.445ZM59.7453 70.7383C59.7453 78.3237 60.1128 84.7083 60.8562 89.8788C61.5968 95.0304 62.7221 99.0636 64.2909 101.887L66.3888 100.722C65.0279 98.2723 63.9559 94.5744 63.2317 89.5372C62.5102 84.5189 62.1453 78.257 62.1453 70.7383H59.7453ZM64.2771 101.862C65.7605 104.691 67.6986 106.87 70.1124 108.336C72.5265 109.803 75.3457 110.512 78.5234 110.512V108.113C75.7116 108.113 73.3387 107.488 71.3583 106.285C69.3775 105.082 67.7187 103.257 66.4026 100.747L64.2771 101.862ZM78.5234 110.512C84.8786 110.512 89.704 107.71 92.8474 102.192L90.762 101.004C88.046 105.772 84.0172 108.113 78.5234 108.113V110.512ZM92.8506 102.186C94.4233 99.3901 95.5484 95.3438 96.2886 90.1457C97.0318 84.9268 97.3992 78.4531 97.3992 70.7383H94.9992C94.9992 78.388 94.6342 84.7398 93.9126 89.8074C93.188 94.8957 92.1158 98.5969 90.7588 101.009L92.8506 102.186ZM97.3992 70.7383C97.3992 63.2505 97.0399 56.9242 96.3132 51.7719C95.589 46.6361 94.4896 42.588 92.9626 39.7075L90.8421 40.8316C92.1797 43.3548 93.2287 47.0865 93.9368 52.107C94.6424 57.1109 94.9992 63.3172 94.9992 70.7383H97.3992ZM92.9651 39.7122C91.4795 36.8792 89.5221 34.6992 87.0743 33.234C84.6275 31.7695 81.7615 31.0617 78.5234 31.0617V33.4617C81.4052 33.4617 83.8289 34.0886 85.8417 35.2933C87.8535 36.4975 89.5257 38.3213 90.8396 40.8268L92.9651 39.7122ZM78.5234 31.0617C72.2274 31.0617 67.4376 33.8695 64.2971 39.3826L66.3825 40.5705C69.1015 35.7972 73.1007 33.4617 78.5234 33.4617V31.0617ZM64.2971 39.3826C62.7216 42.1486 61.5962 46.1734 60.856 51.3547C60.1127 56.5577 59.7453 63.0236 59.7453 70.7383H62.1453C62.1453 63.0884 62.5103 56.745 63.2319 51.6941C63.9565 46.6216 65.0284 42.9478 66.3825 40.5705L64.2971 39.3826ZM80.5429 142.229C85.5831 143.198 90.6575 144.427 95.7661 145.914L96.437 143.61C91.2592 142.102 86.1122 140.856 80.9961 139.872L80.5429 142.229ZM95.7676 145.914C107.279 149.25 116.906 150.942 124.617 150.942V148.542C117.224 148.542 107.84 146.914 96.4355 143.609L95.7676 145.914ZM124.617 150.942C127.234 150.942 130.291 150.674 133.781 150.147L133.422 147.774C130.011 148.289 127.079 148.542 124.617 148.542V150.942ZM132.472 148.556L121.144 180.197L123.403 181.006L134.731 149.365L132.472 148.556ZM122.21 179.403C119.713 179.535 118.359 179.597 118.074 179.597V181.997C118.441 181.997 119.886 181.929 122.337 181.8L122.21 179.403ZM118.074 179.597C111.438 179.597 102.418 177.017 90.9419 171.7L89.9331 173.878C101.504 179.238 110.908 181.997 118.074 181.997V179.597ZM90.9375 171.698C83.1127 168.112 77.0051 165.613 72.6373 164.224L71.9096 166.511C76.1356 167.855 82.1373 170.305 89.9375 173.88L90.9375 171.698ZM72.6199 164.218C68.3888 162.942 63.7125 162.312 58.6016 162.312V164.712C63.5166 164.712 67.955 165.318 71.9269 166.516L72.6199 164.218ZM58.6016 162.312C51.0636 162.312 44.6933 164.014 39.5674 167.5L40.917 169.484C45.5567 166.329 51.426 164.712 58.6016 164.712V162.312ZM41.195 167.763L26.8395 149.013L24.9339 150.472L39.2894 169.222L41.195 167.763ZM26.6878 150.636C33.9749 144.102 43.9622 140.584 56.7821 140.199L56.7101 137.801C43.4883 138.197 32.9027 141.84 25.0857 148.849L26.6878 150.636ZM57.0053 137.828C42.5525 134.631 29.9742 127.151 19.2558 115.342L17.4786 116.955C28.505 129.104 41.5126 136.859 56.4869 140.172L57.0053 137.828ZM19.2512 115.337C8.53373 103.663 3.16094 89.2787 3.16094 72.1055H0.760938C0.760938 89.8281 6.32564 104.806 17.4832 116.96L19.2512 115.337ZM3.16094 72.1055C3.16094 52.2991 10.0058 35.6156 23.7059 21.9794L22.0128 20.2784C7.84842 34.3766 0.760938 51.6774 0.760938 72.1055H3.16094ZM23.7039 21.9814C37.3711 8.44193 55.6009 1.62578 78.5234 1.62578V-0.77422C55.0918 -0.77422 36.2122 6.21172 22.0148 20.2764L23.7039 21.9814ZM78.5234 1.62578C101.84 1.62578 120.16 8.50884 133.626 22.1667L135.335 20.4817C121.327 6.27501 102.342 -0.77422 78.5234 -0.77422V1.62578ZM133.626 22.1668C147.216 35.949 153.984 52.1213 153.984 70.7383H156.384C156.384 51.4647 149.349 34.6942 135.335 20.4817L133.626 22.1668ZM153.984 70.7383C153.984 89.8775 147.085 106.137 133.253 119.585L134.926 121.306C149.219 107.41 156.384 90.5313 156.384 70.7383H153.984ZM133.249 119.589C119.499 133.083 102.039 139.851 80.7695 139.851V142.251C102.599 142.251 120.685 135.282 134.93 121.302L133.249 119.589ZM181.062 74.0586H182.262V72.8586H181.062V74.0586ZM169.637 74.0586H168.437V75.2586H169.637V74.0586ZM169.637 44.2734V43.0734H168.437V44.2734H169.637ZM230.184 44.2734H231.384V43.0734H230.184V44.2734ZM232.332 104.723L233.4 104.176L233.392 104.16L233.383 104.144L232.332 104.723ZM256.355 104.332L256.991 105.35L257.555 104.997V104.332H256.355ZM256.355 74.0586H257.555V72.8586H256.355V74.0586ZM243.367 74.0586H242.167V75.2586H243.367V74.0586ZM243.367 44.2734V43.0734H242.167V44.2734H243.367ZM305.477 44.2734H306.677V43.0734H305.477V44.2734ZM305.477 109.215H304.277V110.415H305.477V109.215ZM316.902 109.215H318.102V108.015H316.902V109.215ZM316.902 139V140.2H318.102V139H316.902ZM256.355 139H255.155V140.2H256.355V139ZM256.355 126.988H257.555V124.667L255.662 126.009L256.355 126.988ZM191.609 131.48L192.406 130.583L192.402 130.579L191.609 131.48ZM181.062 72.8586H169.637V75.2586H181.062V72.8586ZM170.837 74.0586V44.2734H168.437V74.0586H170.837ZM169.637 45.4734H230.184V43.0734H169.637V45.4734ZM228.984 44.2734V89.3906H231.384V44.2734H228.984ZM228.984 89.3906C228.984 93.2314 229.164 96.4733 229.532 99.103C229.898 101.713 230.461 103.81 231.281 105.301L233.383 104.144C232.771 103.031 232.26 101.271 231.909 98.77C231.561 96.2891 231.384 93.1671 231.384 89.3906H228.984ZM231.264 105.27C232.93 108.522 236.428 109.927 241.121 109.927V107.527C236.83 107.527 234.469 106.262 233.4 104.176L231.264 105.27ZM241.121 109.927C246.817 109.927 252.115 108.397 256.991 105.35L255.719 103.314C251.221 106.126 246.362 107.527 241.121 107.527V109.927ZM257.555 104.332V74.0586H255.155V104.332H257.555ZM256.355 72.8586H243.367V75.2586H256.355V72.8586ZM244.567 74.0586V44.2734H242.167V74.0586H244.567ZM243.367 45.4734H305.477V43.0734H243.367V45.4734ZM304.277 44.2734V109.215H306.677V44.2734H304.277ZM305.477 110.415H316.902V108.015H305.477V110.415ZM315.702 109.215V139H318.102V109.215H315.702ZM316.902 137.8H256.355V140.2H316.902V137.8ZM257.555 139V126.988H255.155V139H257.555ZM255.662 126.009C242.873 135.071 229.862 139.558 216.609 139.558V141.958C230.44 141.958 243.927 137.265 257.049 127.967L255.662 126.009ZM216.609 139.558C207.189 139.558 199.143 136.564 192.406 130.583L190.813 132.378C198.008 138.766 206.628 141.958 216.609 141.958V139.558ZM192.402 130.579C185.778 124.752 182.262 113.561 182.262 96.5195H179.863C179.863 113.723 183.379 125.839 190.817 132.381L192.402 130.579ZM182.262 96.5195V74.0586H179.863V96.5195H182.262ZM397.566 139V140.2H398.766V139H397.566ZM330.477 139H329.277V140.2H330.477V139ZM330.477 109.215V108.015H329.277V109.215H330.477ZM340.242 109.215V110.415H341.442V109.215H340.242ZM340.242 74.0586H341.442V72.8586H340.242V74.0586ZM330.477 74.0586H329.277V75.2586H330.477V74.0586ZM330.477 44.2734V43.0734H329.277V44.2734H330.477ZM389.363 44.2734H390.563V43.0734H389.363V44.2734ZM389.363 109.215H388.163V110.415H389.363V109.215ZM397.566 109.215H398.766V108.015H397.566V109.215ZM344.051 5.11328L344.663 6.14565L344.668 6.14227L344.051 5.11328ZM382.43 5.30859L383.117 4.32488L383.109 4.31952L383.102 4.31429L382.43 5.30859ZM382.137 29.625L381.515 28.5984L381.512 28.6007L382.137 29.625ZM343.855 30.0156L344.429 28.9616L344.419 28.9561L343.855 30.0156ZM397.566 137.8H330.477V140.2H397.566V137.8ZM331.677 139V109.215H329.277V139H331.677ZM330.477 110.415H340.242V108.015H330.477V110.415ZM341.442 109.215V74.0586H339.042V109.215H341.442ZM340.242 72.8586H330.477V75.2586H340.242V72.8586ZM331.677 74.0586V44.2734H329.277V74.0586H331.677ZM330.477 45.4734H389.363V43.0734H330.477V45.4734ZM388.163 44.2734V109.215H390.563V44.2734H388.163ZM389.363 110.415H397.566V108.015H389.363V110.415ZM396.366 109.215V139H398.766V109.215H396.366ZM337.341 17.5156C337.341 12.884 339.671 9.10335 344.663 6.14563L343.439 4.08093C337.883 7.37321 334.941 11.8608 334.941 17.5156H337.341ZM344.668 6.14227C349.647 3.1552 355.865 1.62578 363.387 1.62578V-0.77422C355.544 -0.77422 348.872 0.821358 343.433 4.08429L344.668 6.14227ZM363.387 1.62578C371.108 1.62578 377.198 3.22168 381.758 6.3029L383.102 4.31429C378.026 0.885098 371.421 -0.77422 363.387 -0.77422V1.62578ZM381.742 6.2923C386.254 9.44405 388.359 13.1458 388.359 17.418H390.759C390.759 12.185 388.111 7.81376 383.117 4.32488L381.742 6.2923ZM388.359 17.418C388.359 22.0825 386.157 25.7887 381.515 28.5984L382.758 30.6516C388.012 27.4717 390.759 23.0399 390.759 17.418H388.359ZM381.512 28.6007C376.735 31.5163 370.652 33.0148 363.191 33.0148V35.4148C370.965 35.4148 377.512 33.8535 382.762 30.6493L381.512 28.6007ZM363.191 33.0148C355.582 33.0148 349.349 31.6393 344.429 28.9616L343.282 31.0696C348.649 33.9909 355.306 35.4148 363.191 35.4148V33.0148ZM344.419 28.9561C341.999 27.6698 340.245 26.0801 339.091 24.2096C337.938 22.3417 337.341 20.1251 337.341 17.5156H334.941C334.941 20.5051 335.629 23.1713 337.048 25.4701C338.465 27.7663 340.568 29.6271 343.292 31.0752L344.419 28.9561ZM526.961 139V140.2H528.161V139H526.961ZM412.703 139H411.503V140.2H412.703V139ZM412.703 114L411.904 113.104L411.503 113.462V114H412.703ZM465.926 66.5391L466.724 67.4347L469.074 65.3391H465.926V66.5391ZM433.602 66.5391V65.3391H432.402V66.5391H433.602ZM433.602 77.5742V78.7742H434.802V77.5742H433.602ZM413.484 77.5742H412.284V78.7742H413.484V77.5742ZM413.484 44.2734V43.0734H412.284V44.2734H413.484ZM527.938 44.2734H529.138V43.0734H527.938V44.2734ZM527.938 67.6133L528.739 68.5065L529.138 68.1489V67.6133H527.938ZM473.836 116.148L473.035 115.255L470.701 117.348H473.836V116.148ZM506.551 116.148V117.348H507.751V116.148H506.551ZM506.551 104.918V103.718H505.351V104.918H506.551ZM526.961 104.918H528.161V103.718H526.961V104.918ZM526.961 137.8H412.703V140.2H526.961V137.8ZM413.903 139V114H411.503V139H413.903ZM413.502 114.896L466.724 67.4347L465.127 65.6434L411.904 113.104L413.502 114.896ZM465.926 65.3391H433.602V67.7391H465.926V65.3391ZM432.402 66.5391V77.5742H434.802V66.5391H432.402ZM433.602 76.3742H413.484V78.7742H433.602V76.3742ZM414.684 77.5742V44.2734H412.284V77.5742H414.684ZM413.484 45.4734H527.938V43.0734H413.484V45.4734ZM526.737 44.2734V67.6133H529.138V44.2734H526.737ZM527.136 66.72L473.035 115.255L474.637 117.042L528.739 68.5065L527.136 66.72ZM473.836 117.348H506.551V114.948H473.836V117.348ZM507.751 116.148V104.918H505.351V116.148H507.751ZM506.551 106.118H526.961V103.718H506.551V106.118ZM525.761 104.918V139H528.161V104.918H525.761ZM617.781 139V140.2H618.981V139H617.781ZM542.781 139H541.581V140.2H542.781V139ZM542.781 109.215V108.015H541.581V109.215H542.781ZM554.988 109.215V110.415H556.188V109.215H554.988ZM554.988 74.0586H556.188V72.8586H554.988V74.0586ZM542.781 74.0586H541.581V75.2586H542.781V74.0586ZM542.781 44.2734V43.0734H541.581V44.2734H542.781ZM604.109 44.2734H605.309V43.0734H604.109V44.2734ZM604.109 56.2852H602.909V58.7085L604.837 57.2396L604.109 56.2852ZM670.223 52.5742L671.113 51.77L671.109 51.7653L670.223 52.5742ZM679.305 109.215H678.105V110.415H679.305V109.215ZM690.535 109.215H691.735V108.015H690.535V109.215ZM690.535 139V140.2H691.735V139H690.535ZM630.184 139H628.984V140.2H630.184V139ZM627.84 78.7461L628.899 78.1814L628.886 78.1582L628.873 78.1356L627.84 78.7461ZM604.109 79.4297L603.447 78.4292L602.909 78.7851V79.4297H604.109ZM604.109 109.215H602.909V110.415H604.109V109.215ZM617.781 109.215H618.981V108.015H617.781V109.215ZM617.781 137.8H542.781V140.2H617.781V137.8ZM543.981 139V109.215H541.581V139H543.981ZM542.781 110.415H554.988V108.015H542.781V110.415ZM556.188 109.215V74.0586H553.788V109.215H556.188ZM554.988 72.8586H542.781V75.2586H554.988V72.8586ZM543.981 74.0586V44.2734H541.581V74.0586H543.981ZM542.781 45.4734H604.109V43.0734H542.781V45.4734ZM602.909 44.2734V56.2852H605.309V44.2734H602.909ZM604.837 57.2396C616.694 48.2028 629.365 43.7156 642.879 43.7156V41.3156C628.788 41.3156 615.614 46.0081 603.382 55.3308L604.837 57.2396ZM642.879 43.7156C654.769 43.7156 663.513 47.0021 669.336 53.3831L671.109 51.7653C664.693 44.7349 655.208 41.3156 642.879 41.3156V43.7156ZM669.332 53.3784C675.094 59.7595 678.105 70.1727 678.105 84.8984H680.505C680.505 69.9367 677.461 58.8004 671.113 51.77L669.332 53.3784ZM678.105 84.8984V109.215H680.505V84.8984H678.105ZM679.305 110.415H690.535V108.015H679.305V110.415ZM689.335 109.215V139H691.735V109.215H689.335ZM690.535 137.8H630.184V140.2H690.535V137.8ZM631.384 139V96.9102H628.984V139H631.384ZM631.384 96.9102C631.384 92.2918 631.187 88.4276 630.788 85.3308C630.391 82.2594 629.783 79.8402 628.899 78.1814L626.781 79.3108C627.459 80.5817 628.023 82.6546 628.408 85.6379C628.789 88.5959 628.984 92.3489 628.984 96.9102H631.384ZM628.873 78.1356C626.879 74.7608 623.148 73.2492 618.172 73.2492V75.6492C622.701 75.6492 625.416 77.0022 626.807 79.3566L628.873 78.1356ZM618.172 73.2492C613.501 73.2492 608.584 75.0265 603.447 78.4292L604.772 80.4301C609.661 77.1923 614.119 75.6492 618.172 75.6492V73.2492ZM602.909 79.4297V109.215H605.309V79.4297H602.909ZM604.109 110.415H617.781V108.015H604.109V110.415ZM616.581 109.215V139H618.981V109.215H616.581ZM783.797 74.9375L784.767 74.2307L784.759 74.2201L783.797 74.9375ZM759.285 74.8398L758.361 74.0748L759.285 74.8398ZM818.855 55.4062L818.144 56.3728L818.855 55.4062ZM819.734 127.379L818.985 126.441L819.734 127.379ZM722.664 127.379L723.418 126.445L723.415 126.443L722.664 127.379ZM753.398 91.3438C753.398 99.0027 754.761 104.963 757.674 109.034C760.641 113.18 765.09 115.2 770.809 115.2V112.8C765.72 112.8 762.064 111.044 759.626 107.638C757.136 104.157 755.798 98.7889 755.798 91.3438H753.398ZM770.809 115.2C776.829 115.2 781.52 113.181 784.658 109.008C787.748 104.9 789.196 98.8815 789.196 91.1484H786.796C786.796 98.6497 785.38 104.057 782.74 107.566C780.149 111.011 776.246 112.8 770.809 112.8V115.2ZM789.196 91.1484C789.196 84.0413 787.771 78.3528 784.767 74.2307L782.827 75.6443C785.422 79.2045 786.796 84.3233 786.796 91.1484H789.196ZM784.759 74.2201C781.646 70.0459 777.237 67.9758 771.688 67.9758V70.3758C776.555 70.3758 780.219 72.1468 782.835 75.6549L784.759 74.2201ZM771.688 67.9758C766.207 67.9758 761.726 70.008 758.361 74.0748L760.21 75.6049C763.094 72.1196 766.882 70.3758 771.688 70.3758V67.9758ZM758.361 74.0748C754.99 78.1476 753.398 83.9662 753.398 91.3438H755.798C755.798 84.2682 757.33 79.0842 760.21 75.6049L758.361 74.0748ZM706.091 91.1484C706.091 77.6104 711.761 66.1887 723.228 56.824L721.71 54.9651C709.739 64.741 703.691 76.8219 703.691 91.1484H706.091ZM723.228 56.824C734.673 47.4774 750.196 42.7391 769.93 42.7391V40.3391C749.82 40.3391 733.702 45.1711 721.71 54.9651L723.228 56.824ZM769.93 42.7391C789.799 42.7391 805.837 47.318 818.144 56.3728L819.567 54.4397C806.743 45.0049 790.164 40.3391 769.93 40.3391V42.7391ZM818.144 56.3728C830.42 65.405 836.503 77.0991 836.503 91.5391H838.903C838.903 76.2915 832.421 63.8971 819.567 54.4397L818.144 56.3728ZM836.503 91.5391C836.503 105.469 830.703 117.08 818.985 126.441L820.483 128.316C832.724 118.537 838.903 106.255 838.903 91.5391H836.503ZM818.985 126.441C807.273 135.799 791.741 140.534 772.273 140.534V142.934C792.129 142.934 808.238 138.1 820.483 128.316L818.985 126.441ZM772.273 140.534C751.217 140.534 734.983 135.786 723.418 126.445L721.91 128.312C734.043 138.112 750.882 142.934 772.273 142.934V140.534ZM723.415 126.443C711.838 117.156 706.091 105.418 706.091 91.1484H703.691C703.691 106.176 709.792 118.592 721.913 128.315L723.415 126.443ZM888.484 140.172V141.372H889.684V140.172H888.484ZM858.113 140.172H856.913V141.372H858.113V140.172ZM858.113 110.094V108.894H856.913V110.094H858.113ZM886.531 110.094L887.402 109.268L887.047 108.894H886.531V110.094ZM920.711 112.047L920.146 113.106L920.153 113.109L920.16 113.113L920.711 112.047ZM905.184 107.457L904.872 108.616L904.887 108.62L904.903 108.624L905.184 107.457ZM882.723 101.109L883.061 99.9579L883.051 99.9552L882.723 101.109ZM865.926 93.4922L866.643 92.5304L866.636 92.525L866.629 92.5198L865.926 93.4922ZM857.43 84.5078L858.508 83.9808L858.498 83.9618L858.489 83.9431L857.43 84.5078ZM866.219 49.8398L865.555 48.84L865.553 48.8414L866.219 49.8398ZM923.738 49.1562L923.154 50.2044L924.938 51.1989V49.1562H923.738ZM923.738 44.2734V43.0734H922.538V44.2734H923.738ZM953.719 44.2734H954.919V43.0734H953.719V44.2734ZM953.719 71.8125V73.0125H954.919V71.8125H953.719ZM925.984 71.8125L925.157 72.6813L925.504 73.0125H925.984V71.8125ZM893.465 71.6172L893.82 70.4711L893.796 70.4636L893.772 70.4571L893.465 71.6172ZM912.215 75.8164L912.462 74.6422L912.46 74.6417L912.215 75.8164ZM940.438 83.4336L940.862 82.3113L940.859 82.31L940.438 83.4336ZM955.574 93.4922L956.513 92.7443L956.506 92.7355L955.574 93.4922ZM948.348 133.043L948.992 134.055L948.995 134.054L948.348 133.043ZM888.484 134.312L889.041 133.249L887.284 132.329V134.312H888.484ZM888.484 138.972H858.113V141.372H888.484V138.972ZM859.313 140.172V110.094H856.913V140.172H859.313ZM858.113 111.294H886.531V108.894H858.113V111.294ZM885.661 110.92C893.125 118.784 901.398 122.817 910.457 122.817V120.417C902.199 120.417 894.521 116.768 887.402 109.268L885.661 110.92ZM910.457 122.817C914.865 122.817 918.326 122.37 920.727 121.385C921.939 120.887 922.947 120.226 923.657 119.352C924.382 118.459 924.743 117.406 924.743 116.246H922.343C922.343 116.876 922.159 117.39 921.794 117.839C921.412 118.309 920.785 118.767 919.816 119.164C917.855 119.969 914.773 120.417 910.457 120.417V122.817ZM924.743 116.246C924.743 115.116 924.446 114.072 923.83 113.158C923.22 112.254 922.339 111.538 921.262 110.981L920.16 113.113C920.97 113.532 921.506 114.005 921.84 114.5C922.168 114.986 922.343 115.554 922.343 116.246H924.743ZM921.276 110.988C920.18 110.404 918.291 109.732 915.704 108.967C913.089 108.194 909.673 107.302 905.464 106.29L904.903 108.624C909.093 109.631 912.464 110.512 915.024 111.269C917.613 112.034 919.289 112.648 920.146 113.106L921.276 110.988ZM905.496 106.298C898.735 104.478 891.257 102.365 883.061 99.958L882.385 102.261C890.595 104.672 898.09 106.79 904.872 108.616L905.496 106.298ZM883.051 99.9552C876.038 97.9607 870.588 95.4735 866.643 92.5304L865.208 94.454C869.466 97.6306 875.214 100.222 882.394 102.264L883.051 99.9552ZM866.629 92.5198C862.471 89.5131 859.817 86.6578 858.508 83.9808L856.352 85.0349C857.907 88.2172 860.917 91.3515 865.223 94.4646L866.629 92.5198ZM858.489 83.9431C857.05 81.246 856.286 77.6196 856.286 72.9844H853.886C853.886 77.8544 854.684 81.9103 856.371 85.0725L858.489 83.9431ZM856.286 72.9844C856.286 62.8226 859.859 55.5221 866.884 50.8383L865.553 48.8414C857.735 54.0534 853.886 62.1826 853.886 72.9844H856.286ZM866.882 50.8397C873.994 46.1198 883.088 43.7156 894.246 43.7156V41.3156C882.748 41.3156 873.157 43.7943 865.555 48.84L866.882 50.8397ZM894.246 43.7156C905.818 43.7156 915.434 45.9016 923.154 50.2044L924.323 48.1081C916.157 43.5567 906.112 41.3156 894.246 41.3156V43.7156ZM924.938 49.1562V44.2734H922.538V49.1562H924.938ZM923.738 45.4734H953.719V43.0734H923.738V45.4734ZM952.519 44.2734V71.8125H954.919V44.2734H952.519ZM953.719 70.6125H925.984V73.0125H953.719V70.6125ZM926.812 70.9437C919.689 64.1563 911.189 60.7492 901.375 60.7492V63.1492C910.571 63.1492 918.478 66.3177 925.157 72.6813L926.812 70.9437ZM901.375 60.7492C897.565 60.7492 894.521 61.2479 892.39 62.3784C891.306 62.9531 890.431 63.706 889.83 64.6616C889.227 65.6213 888.945 66.7174 888.945 67.9062H891.345C891.345 67.1094 891.53 66.468 891.862 65.9385C892.198 65.4049 892.726 64.9167 893.514 64.4986C895.127 63.6434 897.698 63.1492 901.375 63.1492V60.7492ZM888.945 67.9062C888.945 69.1021 889.303 70.1813 890.08 71.0502C890.839 71.8981 891.908 72.4463 893.158 72.7772L893.772 70.4571C892.809 70.2022 892.217 69.8389 891.869 69.4498C891.54 69.0817 891.345 68.5984 891.345 67.9062H888.945ZM893.109 72.7633C895.067 73.3707 901.39 74.7843 911.97 76.9911L912.46 74.6417C901.816 72.4214 895.639 71.0355 893.82 70.4711L893.109 72.7633ZM911.967 76.9906C923.987 79.5246 933.328 82.049 940.016 84.5572L940.859 82.31C934.006 79.7401 924.531 77.1864 912.462 74.6422L911.967 76.9906ZM940.013 84.5558C946.584 87.0442 951.429 90.2928 954.643 94.2489L956.506 92.7355C952.949 88.3582 947.702 84.9011 940.862 82.3113L940.013 84.5558ZM954.636 94.24C957.764 98.1656 959.355 103.002 959.355 108.824H961.755C961.755 102.537 960.025 97.1521 956.513 92.7443L954.636 94.24ZM959.355 108.824C959.355 119.416 955.444 127.077 947.701 132.032L948.995 134.054C957.528 128.593 961.755 120.107 961.755 108.824H959.355ZM947.703 132.031C939.864 137.025 930.14 139.558 918.465 139.558V141.958C930.488 141.958 940.686 139.347 948.992 134.055L947.703 132.031ZM918.465 139.558C906.823 139.558 897.032 137.435 889.041 133.249L887.928 135.376C896.343 139.784 906.539 141.958 918.465 141.958V139.558ZM887.284 134.312V140.172H889.684V134.312H887.284ZM65.1445 317.457V316.257H63.9445V317.457H65.1445ZM65.1445 344.215H63.9445V345.415H65.1445V344.215ZM93.2695 341.285L93.878 342.32L93.8869 342.314L93.2695 341.285ZM93.7578 320.68L94.4812 319.722L94.4744 319.717L94.4674 319.712L93.7578 320.68ZM65.1445 267.945V266.745H63.9445V267.945H65.1445ZM65.1445 292.75H63.9445V293.95H65.1445V292.75ZM92.293 289.332L93.1059 290.215L93.1179 290.204L93.1295 290.192L92.293 289.332ZM0.789062 374H-0.410937V375.2H0.789062V374ZM0.789062 341.48V340.28H-0.410937V341.48H0.789062ZM12.6055 341.48V342.68H13.8055V341.48H12.6055ZM12.6055 270.68H13.8055V269.48H12.6055V270.68ZM0.789062 270.68H-0.410937V271.88H0.789062V270.68ZM0.789062 238.16V236.96H-0.410937V238.16H0.789062ZM121.59 240.992L121.85 239.821L121.838 239.818L121.59 240.992ZM142.293 252.613L143.209 251.838L143.2 251.828L142.293 252.613ZM142.684 291.676L141.853 290.81L141.853 290.81L142.684 291.676ZM124.91 301.441L124.606 300.28L120.466 301.364L124.566 302.591L124.91 301.441ZM146.98 314.723L147.894 313.945L147.891 313.941L146.98 314.723ZM146.004 358.57L146.884 359.387L146.888 359.382L146.004 358.57ZM121.883 370.973L121.658 369.794L121.647 369.796L121.883 370.973ZM63.9445 317.457V344.215H66.3445V317.457H63.9445ZM65.1445 345.415H76.9609V343.015H65.1445V345.415ZM76.9609 345.415C84.5574 345.415 90.2678 344.443 93.878 342.319L92.6611 340.251C89.6306 342.033 84.4686 343.015 76.9609 343.015V345.415ZM93.8869 342.314C97.6131 340.078 99.3523 336.157 99.3523 330.934H96.9523C96.9523 335.606 95.4364 338.586 92.6521 340.256L93.8869 342.314ZM99.3523 330.934C99.3523 326.043 97.7876 322.22 94.4812 319.722L93.0344 321.637C95.5874 323.566 96.9523 326.58 96.9523 330.934H99.3523ZM94.4674 319.712C92.7982 318.488 90.4518 317.637 87.5361 317.084C84.6053 316.528 81.0092 316.257 76.7656 316.257V318.657C80.9205 318.657 84.3556 318.923 87.0889 319.442C89.8372 319.963 91.7877 320.723 93.0482 321.647L94.4674 319.712ZM76.7656 316.257H65.1445V318.657H76.7656V316.257ZM63.9445 267.945V292.75H66.3445V267.945H63.9445ZM65.1445 293.95H76.7656V291.55H65.1445V293.95ZM76.7656 293.95C80.7536 293.95 84.1109 293.662 86.8136 293.067C89.5004 292.476 91.6475 291.558 93.1059 290.215L91.48 288.449C90.4644 289.385 88.7867 290.176 86.2977 290.724C83.8247 291.268 80.6553 291.55 76.7656 291.55V293.95ZM93.1295 290.192C95.7379 287.656 97.0086 284.335 97.0086 280.348H94.6086C94.6086 283.782 93.5356 286.45 91.4565 288.472L93.1295 290.192ZM97.0086 280.348C97.0086 276.861 95.8253 273.724 93.502 270.979L91.6699 272.529C93.6435 274.861 94.6086 277.454 94.6086 280.348H97.0086ZM93.502 270.979C92.1652 269.399 89.8284 268.375 86.8084 267.724C83.7453 267.064 79.7688 266.745 74.9102 266.745V269.145C79.6869 269.145 83.4741 269.461 86.3029 270.071C89.1749 270.689 90.8582 271.57 91.6699 272.529L93.502 270.979ZM74.9102 266.745H65.1445V269.145H74.9102V266.745ZM77.6445 372.8H0.789062V375.2H77.6445V372.8ZM1.98906 374V341.48H-0.410937V374H1.98906ZM0.789062 342.68H12.6055V340.28H0.789062V342.68ZM13.8055 341.48V270.68H11.4055V341.48H13.8055ZM12.6055 269.48H0.789062V271.88H12.6055V269.48ZM1.98906 270.68V238.16H-0.410937V270.68H1.98906ZM0.789062 239.36H83.7969V236.96H0.789062V239.36ZM83.7969 239.36C100.044 239.36 112.544 240.304 121.341 242.166L121.838 239.818C112.797 237.904 100.102 236.96 83.7969 236.96V239.36ZM121.33 242.164C129.913 244.071 136.569 247.832 141.385 253.398L143.2 251.828C137.991 245.806 130.845 241.82 121.85 239.821L121.33 242.164ZM141.377 253.388C146.204 259.093 148.613 265.718 148.613 273.316H151.012C151.012 265.16 148.408 257.983 143.209 251.838L141.377 253.388ZM148.613 273.316C148.613 280.731 146.33 286.517 141.853 290.81L143.514 292.542C148.542 287.72 151.012 281.266 151.012 273.316H148.613ZM141.853 290.81C137.127 295.347 131.388 298.506 124.606 300.28L125.214 302.602C132.365 300.731 138.475 297.38 143.515 292.541L141.853 290.81ZM124.566 302.591C133.974 305.407 141.112 309.73 146.07 315.504L147.891 313.941C142.563 307.736 134.987 303.205 125.254 300.292L124.566 302.591ZM146.067 315.5C151.101 321.416 153.593 328.013 153.593 335.328H155.993C155.993 327.409 153.276 320.269 147.894 313.945L146.067 315.5ZM153.593 335.328C153.593 344.159 150.765 351.612 145.12 357.759L146.888 359.382C152.962 352.768 155.993 344.726 155.993 335.328H153.593ZM145.124 357.754C139.473 363.845 131.681 367.879 121.658 369.794L122.108 372.151C132.527 370.16 140.817 365.925 146.884 359.387L145.124 357.754ZM121.647 369.796C111.674 371.791 97.0229 372.8 77.6445 372.8V375.2C97.0683 375.2 111.909 374.191 122.118 372.149L121.647 369.796ZM236.238 336.305L237.301 335.747L237.294 335.735L237.287 335.722L236.238 336.305ZM262.703 336.598L263.746 337.192L263.749 337.186L262.703 336.598ZM262.801 275.27L261.738 275.827L261.741 275.832L262.801 275.27ZM236.238 274.977L237.281 275.57L236.238 274.977ZM181.16 272.828L182.224 273.383L182.225 273.38L181.16 272.828ZM206.648 246.168L206.017 245.148L206.011 245.151L206.648 246.168ZM219.246 240.113L218.856 238.978L218.851 238.98L219.246 240.113ZM233.406 236.695L233.589 237.881L233.596 237.88L233.604 237.879L233.406 236.695ZM305.965 256.812L305.089 257.633L305.092 257.636L305.965 256.812ZM194.148 356.422L194.966 355.544L194.962 355.54L194.148 356.422ZM230.644 305.738C230.644 313.324 231.011 319.708 231.755 324.879C232.495 330.03 233.62 334.064 235.189 336.887L237.287 335.722C235.926 333.272 234.854 329.574 234.13 324.537C233.409 319.519 233.044 313.257 233.044 305.738H230.644ZM235.176 336.862C236.659 339.691 238.597 341.87 241.011 343.336C243.425 344.803 246.244 345.513 249.422 345.513V343.112C246.61 343.112 244.237 342.488 242.257 341.285C240.276 340.082 238.617 338.257 237.301 335.747L235.176 336.862ZM249.422 345.513C255.777 345.513 260.602 342.71 263.746 337.192L261.66 336.004C258.944 340.772 254.916 343.112 249.422 343.112V345.513ZM263.749 337.186C265.322 334.39 266.447 330.344 267.187 325.146C267.93 319.927 268.298 313.453 268.298 305.738H265.898C265.898 313.388 265.533 319.74 264.811 324.807C264.086 329.896 263.014 333.597 261.657 336.009L263.749 337.186ZM268.298 305.738C268.298 298.251 267.938 291.924 267.212 286.772C266.487 281.636 265.388 277.588 263.861 274.707L261.741 275.832C263.078 278.355 264.127 282.087 264.835 287.107C265.541 292.111 265.898 298.317 265.898 305.738H268.298ZM263.864 274.712C262.378 271.879 260.421 269.699 257.973 268.234C255.526 266.77 252.66 266.062 249.422 266.062V268.462C252.304 268.462 254.727 269.089 256.74 270.293C258.752 271.497 260.424 273.321 261.738 275.827L263.864 274.712ZM249.422 266.062C243.126 266.062 238.336 268.869 235.196 274.383L237.281 275.57C240 270.797 243.999 268.462 249.422 268.462V266.062ZM235.196 274.383C233.62 277.149 232.495 281.173 231.754 286.355C231.011 291.558 230.644 298.024 230.644 305.738H233.044C233.044 298.088 233.409 291.745 234.13 286.694C234.855 281.622 235.927 277.948 237.281 275.57L235.196 274.383ZM174.059 305.738C174.059 294.614 176.774 283.834 182.224 273.383L180.096 272.273C174.478 283.047 171.659 294.206 171.659 305.738H174.059ZM182.225 273.38C187.582 263.05 195.917 254.314 207.286 247.185L206.011 245.151C194.333 252.475 185.676 261.513 180.095 272.276L182.225 273.38ZM207.28 247.188C211.312 244.693 215.432 242.713 219.641 241.246L218.851 238.98C214.467 240.508 210.188 242.565 206.017 245.148L207.28 247.188ZM219.636 241.248C223.923 239.776 228.573 238.653 233.589 237.881L233.224 235.509C228.083 236.3 223.293 237.455 218.856 238.978L219.636 241.248ZM233.604 237.879C238.611 237.044 243.883 236.626 249.422 236.626V234.226C243.763 234.226 238.358 234.654 233.209 235.512L233.604 237.879ZM249.422 236.626C273.526 236.626 292.023 243.674 305.089 257.633L306.841 255.992C293.214 241.435 274.015 234.226 249.422 234.226V236.626ZM305.092 257.636C311.641 264.571 316.57 272.066 319.895 280.122L322.113 279.206C318.667 270.856 313.569 263.117 306.837 255.989L305.092 257.636ZM319.895 280.122C323.218 288.175 324.882 296.71 324.882 305.738H327.282C327.282 296.407 325.561 287.56 322.113 279.206L319.895 280.122ZM324.882 305.738C324.882 324.355 318.114 340.528 304.524 354.31L306.233 355.995C320.248 341.782 327.282 325.012 327.282 305.738H324.882ZM304.524 354.31C290.991 368.035 272.671 374.948 249.422 374.948V377.348C273.178 377.348 292.162 370.265 306.233 355.995L304.524 354.31ZM249.422 374.948C226.947 374.948 208.833 368.452 194.966 355.544L193.331 357.3C207.719 370.694 226.454 377.348 249.422 377.348V374.948ZM194.962 355.54C181.035 342.699 174.059 326.133 174.059 305.738H171.659C171.659 326.749 178.877 343.973 193.335 357.304L194.962 355.54ZM412.801 374V375.2H414.001V374H412.801ZM334.09 374H332.89V375.2H334.09V374ZM334.09 341.48V340.28H332.89V341.48H334.09ZM349.324 341.48V342.68H349.737L350.063 342.426L349.324 341.48ZM393.855 306.715L394.594 307.661L395.784 306.732L394.61 305.782L393.855 306.715ZM349.324 270.68L350.079 269.747L349.749 269.48H349.324V270.68ZM334.871 270.68H333.671V271.88H334.871V270.68ZM334.871 238.16V236.96H333.671V238.16H334.871ZM425.301 238.16H426.501V236.96H425.301V238.16ZM425.301 266.773V267.973H426.501V266.773H425.301ZM411.727 266.773V265.573H408.524L410.938 267.678L411.727 266.773ZM434.578 286.695L433.79 287.6L434.628 288.331L435.42 287.55L434.578 286.695ZM454.793 266.773L455.635 267.628L457.72 265.573H454.793V266.773ZM443.074 266.773H441.874V267.973H443.074V266.773ZM443.074 238.16V236.96H441.874V238.16H443.074ZM518.465 238.16H519.665V236.96H518.465V238.16ZM518.465 270.68V271.88H519.665V270.68H518.465ZM498.152 270.68V269.48H497.716L497.382 269.76L498.152 270.68ZM461.531 301.344L460.761 300.424L459.655 301.349L460.767 302.268L461.531 301.344ZM510.066 341.48L509.302 342.405L509.635 342.68H510.066V341.48ZM523.641 341.48H524.841V340.28H523.641V341.48ZM523.641 374V375.2H524.841V374H523.641ZM432.234 374H431.034V375.2H432.234V374ZM432.234 345.387V344.187H431.034V345.387H432.234ZM446.492 345.387V346.587H449.612L447.296 344.496L446.492 345.387ZM421.395 322.73L422.199 321.84L421.359 321.082L420.553 321.875L421.395 322.73ZM398.348 345.387L397.506 344.531L395.415 346.587H398.348V345.387ZM412.801 345.387H414.001V344.187H412.801V345.387ZM412.801 372.8H334.09V375.2H412.801V372.8ZM335.29 374V341.48H332.89V374H335.29ZM334.09 342.68H349.324V340.28H334.09V342.68ZM350.063 342.426L394.594 307.661L393.117 305.769L348.586 340.535L350.063 342.426ZM394.61 305.782L350.079 269.747L348.569 271.613L393.101 307.648L394.61 305.782ZM349.324 269.48H334.871V271.88H349.324V269.48ZM336.071 270.68V238.16H333.671V270.68H336.071ZM334.871 239.36H425.301V236.96H334.871V239.36ZM424.101 238.16V266.773H426.501V238.16H424.101ZM425.301 265.573H411.727V267.973H425.301V265.573ZM410.938 267.678L433.79 287.6L435.367 285.791L412.515 265.869L410.938 267.678ZM435.42 287.55L455.635 267.628L453.951 265.919L433.736 285.841L435.42 287.55ZM454.793 265.573H443.074V267.973H454.793V265.573ZM444.274 266.773V238.16H441.874V266.773H444.274ZM443.074 239.36H518.465V236.96H443.074V239.36ZM517.265 238.16V270.68H519.665V238.16H517.265ZM518.465 269.48H498.152V271.88H518.465V269.48ZM497.382 269.76L460.761 300.424L462.302 302.264L498.923 271.6L497.382 269.76ZM460.767 302.268L509.302 342.405L510.831 340.556L462.296 300.419L460.767 302.268ZM510.066 342.68H523.641V340.28H510.066V342.68ZM522.441 341.48V374H524.841V341.48H522.441ZM523.641 372.8H432.234V375.2H523.641V372.8ZM433.434 374V345.387H431.034V374H433.434ZM432.234 346.587H446.492V344.187H432.234V346.587ZM447.296 344.496L422.199 321.84L420.59 323.621L445.688 346.277L447.296 344.496ZM420.553 321.875L397.506 344.531L399.189 346.242L422.236 323.586L420.553 321.875ZM398.348 346.587H412.801V344.187H398.348V346.587ZM411.601 345.387V374H414.001V345.387H411.601Z" fill="white"/>
</svg>
